<?xml version="1.0" standalone="yes"?>
<!DOCTYPE svg PUBLIC "-//W3C//DTD SVG 1.1//EN" "http://www.w3.org/Graphics/SVG/1.1/DTD/svg11.dtd"><svg xmlns="http://www.w3.org/2000/svg" xmlns:xlink="http://www.w3.org/1999/xlink" width="32" height="32">
<path style="fill:#810101; stroke:none;" d="M0 0L0 32L32 32L32 0L0 0z"/>
<path style="fill:#d7cdbe; stroke:none;" d="M1 1C5.16683 2.74848 11.5776 2.74829 16 2C11.5286 0.123705 5.81664 1 1 1z"/>
<path style="fill:#ffffff; stroke:none;" d="M1 2C1 11.2976 1.50399 20.7231 1 30C2.97209 28.7674 4.84289 28.8745 7 28C5.21151 26.5785 4.29424 26.3026 2 26C3.05729 20.3149 4.90621 17.746 11 19C9.19431 12.0826 9.73217 8.17256 13 2L1 2M15 2L16 3L15 2z"/>
<path style="fill:#bfb5a5; stroke:none;" d="M13 3C14.2484 3.6848 14.5484 3.74879 16 4C14.7516 3.3152 14.4516 3.25121 13 3z"/>
<path style="fill:#988466; stroke:none;" d="M16 3C17.2484 3.6848 17.5484 3.7488 19 4C17.7516 3.3152 17.4516 3.25121 16 3z"/>
<path style="fill:#bfb5a5; stroke:none;" d="M11 4L12 5L11 4z"/>
<path style="fill:#9f9179; stroke:none;" d="M12.6667 4.33333C12.2222 4.77777 13.2778 4.72222 13.3333 4.66667C13.7778 4.22223 12.7222 4.27778 12.6667 4.33333z"/>
<path style="fill:#810101; stroke:none;" d="M12 20C17.9616 17.6035 16 9.44161 16 4C8.07386 6.18885 10.0201 13.6436 12 20z"/>
<path style="fill:#dfdbd3; stroke:none;" d="M16 4C16.9816 5.61256 17.1104 5.49309 16 7C17.4566 8.10341 17.8966 8.54337 19 10C19.6848 8.75165 19.7488 8.45157 20 7C20.5618 8.80057 20.8241 10.1218 21 12C22.6082 7.69967 20.0398 5.17194 16 4z"/>
<path style="fill:#9f8d72; stroke:none;" d="M19 4L20 5L19 4z"/>
<path style="fill:#8c795b; stroke:none;" d="M10.3333 5.66667C10.2778 5.72222 10.2222 6.77778 10.6667 6.33333C10.7222 6.27777 10.7778 5.22222 10.3333 5.66667z"/>
<path style="fill:#ffffff; stroke:none;" d="M16.6667 5.33333C16.2222 5.77777 17.2778 5.72222 17.3333 5.66667C17.7778 5.22223 16.7222 5.27778 16.6667 5.33333z"/>
<path style="fill:#ab9d86; stroke:none;" d="M20 5L21 6L20 5z"/>
<path style="fill:#d7cdbe; stroke:none;" d="M9 6L10 7L9 6z"/>
<path style="fill:#988466; stroke:none;" d="M21 6L22 7L21 6z"/>
<path style="fill:#bfb5a5; stroke:none;" d="M9 7L9 10C9.6961 8.4463 9.6961 8.5537 9 7z"/>
<path style="fill:#cbc0b0; stroke:none;" d="M16.6667 7.33333C16.2222 7.77778 17.2778 7.72222 17.3333 7.66667C17.7778 7.22223 16.7222 7.27778 16.6667 7.33333z"/>
<path style="fill:#ffffff; stroke:none;" d="M20.3333 7.66667C20.2778 7.72222 20.2222 8.77778 20.6667 8.33333C20.7222 8.27777 20.7778 7.22223 20.3333 7.66667M16 8L16 19C19.1266 18.0658 20.0658 17.1266 21 14C19.6036 14.6614 19.1863 14.9644 18 16C18 14.2032 17.9857 14.4785 17 13L21 13L19 8L16 8z"/>
<path style="fill:#c1b29c; stroke:none;" d="M20.3333 9.66667C20.2778 9.72222 20.2222 10.7778 20.6667 10.3333C20.7222 10.2778 20.7778 9.22222 20.3333 9.66667z"/>
<path style="fill:#9f8d72; stroke:none;" d="M10.3333 11.6667C10.2778 11.7222 10.2222 12.7778 10.6667 12.3333C10.7222 12.2778 10.7778 11.2222 10.3333 11.6667z"/>
<path style="fill:#b8aa92; stroke:none;" d="M9.33333 12.6667C9.27778 12.7222 9.22222 13.7778 9.66667 13.3333C9.72222 13.2778 9.77778 12.2222 9.33333 12.6667z"/>
<path style="fill:#c1b29c; stroke:none;" d="M12.6667 12.3333C12.2222 12.7778 13.2778 12.7222 13.3333 12.6667C13.7778 12.2222 12.7222 12.2778 12.6667 12.3333z"/>
<path style="fill:#8c795b; stroke:none;" d="M14.3333 12.6667C14.2778 12.7222 14.2222 13.7778 14.6667 13.3333C14.7222 13.2778 14.7778 12.2222 14.3333 12.6667z"/>
<path style="fill:#b8aa92; stroke:none;" d="M18.6667 12.3333C18.2222 12.7778 19.2778 12.7222 19.3333 12.6667C19.7778 12.2222 18.7222 12.2778 18.6667 12.3333z"/>
<path style="fill:#9f8d72; stroke:none;" d="M21 12L22 13L21 12z"/>
<path style="fill:#988466; stroke:none;" d="M17 13L18 14L17 13z"/>
<path style="fill:#ebe6de; stroke:none;" d="M18 13C19.2484 13.6848 19.5484 13.7488 21 14C19.7516 13.3152 19.4516 13.2512 18 13z"/>
<path style="fill:#bfb5a5; stroke:none;" d="M21 13L21 16C21.6961 14.4463 21.6961 14.5537 21 13z"/>
<path style="fill:#ab9d86; stroke:none;" d="M13.3333 14.6667C13.2778 14.7222 13.2222 15.7778 13.6667 15.3333C13.7222 15.2778 13.7778 14.2222 13.3333 14.6667z"/>
<path style="fill:#cfc5b9; stroke:none;" d="M18.3333 14.6667C18.2778 14.7222 18.2222 15.7778 18.6667 15.3333C18.7222 15.2778 18.7778 14.2222 18.3333 14.6667z"/>
<path style="fill:#8c795b; stroke:none;" d="M10 15L11 16L10 15z"/>
<path style="fill:#cbc0b0; stroke:none;" d="M10.3333 16.6667C10.2778 16.7222 10.2222 17.7778 10.6667 17.3333C10.7222 17.2778 10.7778 16.2222 10.3333 16.6667M20 17L21 18L20 17z"/>
<path style="fill:#ab9d86; stroke:none;" d="M25 17L26 18L25 17z"/>
<path style="fill:#d7cdbe; stroke:none;" d="M26.6667 17.3333C26.2222 17.7778 27.2778 17.7222 27.3333 17.6667C27.7778 17.2222 26.7222 17.2778 26.6667 17.3333M4.66667 18.3333C4.22222 18.7778 5.27778 18.7222 5.33333 18.6667C5.77778 18.2222 4.72222 18.2778 4.66667 18.3333z"/>
<path style="fill:#bfb5a5; stroke:none;" d="M6 18C7.37656 18.9114 8.43988 19.4038 10 20C8.686 18.3821 8.12276 18.3067 6 18z"/>
<path style="fill:#d7cdbe; stroke:none;" d="M11 18L12 19L11 18z"/>
<path style="fill:#ab9d86; stroke:none;" d="M19 20L22 19C20.2218 18.0446 19.9786 18.2338 19 20z"/>
<path style="fill:#d7cdbe; stroke:none;" d="M22 18L23 19L22 18z"/>
<path style="fill:#ffffff; stroke:none;" d="M17 21C20.5743 22.24 24.2822 20.3701 28 20L28 18C23.8982 18.1879 20.6359 19.0942 17 21z"/>
<path style="fill:#ab9d86; stroke:none;" d="M28.3333 18.6667C28.2778 18.7222 28.2222 19.7778 28.6667 19.3333C28.7222 19.2778 28.7778 18.2222 28.3333 18.6667z"/>
<path style="fill:#ebe6de; stroke:none;" d="M3 19C3.54505 20.6352 3.36484 20.4549 5 21L5 19L3 19z"/>
<path style="fill:#ffffff; stroke:none;" d="M5 19L5 21L15 22C12.0419 19.6723 8.71716 19.2963 5 19z"/>
<path style="fill:#ab9d86; stroke:none;" d="M10.6667 19.3333C10.2222 19.7778 11.2778 19.7222 11.3333 19.6667C11.7778 19.2222 10.7222 19.2778 10.6667 19.3333z"/>
<path style="fill:#8c795b; stroke:none;" d="M14 19L14 21L16 21C15.4549 19.3648 15.6352 19.5451 14 19z"/>
<path style="fill:#d7cdbe; stroke:none;" d="M15 19C16.8103 20.2397 16.7769 20.1837 19 20C17.6303 19.4183 16.4935 19.2033 15 19z"/>
<path style="fill:#7f6b4d; stroke:none;" d="M16 19L17 20L16 19z"/>
<path style="fill:#ab9d86; stroke:none;" d="M2 20L2 24C2.91141 22.6234 3.40378 21.5601 4 20L2 20z"/>
<path style="fill:#d7cdbe; stroke:none;" d="M23.6667 20.3333C23.2222 20.7778 24.2778 20.7222 24.3333 20.6667C24.7778 20.2222 23.7222 20.2778 23.6667 20.3333z"/>
<path style="fill:#988466; stroke:none;" d="M25 20L26 21L25 20M5.66667 21.3333C5.22222 21.7778 6.27778 21.7222 6.33333 21.6667C6.77778 21.2222 5.72222 21.2778 5.66667 21.3333z"/>
<path style="fill:#d7cdbe; stroke:none;" d="M7.66667 21.3333C7.22222 21.7778 8.27778 21.7222 8.33333 21.6667C8.77778 21.2222 7.72222 21.2778 7.66667 21.3333z"/>
<path style="fill:#ab9d86; stroke:none;" d="M11 22C13.5292 23.0395 15.1756 23.0932 17 21L11 22z"/>
<path style="fill:#cbc0b0; stroke:none;" d="M21 21L22 22L21 21z"/>
<path style="fill:#9f8d72; stroke:none;" d="M22 21L23 22L22 21z"/>
<path style="fill:#d7cdbe; stroke:none;" d="M17 22L18 23L17 22z"/>
<path style="fill:#8c795b; stroke:none;" d="M18.6667 22.3333C18.2222 22.7778 19.2778 22.7222 19.3333 22.6667C19.7778 22.2222 18.7222 22.2778 18.6667 22.3333M25.6667 24.3333C25.2222 24.7778 26.2778 24.7222 26.3333 24.6667C26.7778 24.2222 25.7222 24.2778 25.6667 24.3333z"/>
<path style="fill:#ab9d86; stroke:none;" d="M2 25C3.50604 25.683 4.31479 25.8259 6 26C4.49396 25.317 3.68521 25.1741 2 25z"/>
<path style="fill:#d7cdbe; stroke:none;" d="M24.3333 25.6667C24.2778 25.7222 24.2222 26.7778 24.6667 26.3333C24.7222 26.2778 24.7778 25.2222 24.3333 25.6667z"/>
<path style="fill:#ffffff; stroke:none;" d="M25 25C25.9684 27.9482 27.1415 28.8159 30 30L30 26L27 27C28.1502 25.2748 28.5539 25.7769 27 25L25 25z"/>
<path style="fill:#ebe6de; stroke:none;" d="M28 25L27 27L29 27C29 25.1468 29.2997 25.6498 28 25z"/>
<path style="fill:#8c795b; stroke:none;" d="M29 25L30 26L29 25z"/>
<path style="fill:#bfb5a5; stroke:none;" d="M1 26L2 27L1 26z"/>
<path style="fill:#ab9d86; stroke:none;" d="M6 26C6.54505 27.6352 6.36484 27.4549 8 28L8 26L6 26z"/>
<path style="fill:#d7cdbe; stroke:none;" d="M30 26C29.7817 27.6865 29.7761 28.3161 30 30C30.7102 28.2405 30.7102 27.7595 30 26z"/>
<path style="fill:#b8aa92; stroke:none;" d="M24 27C24.9939 29.2035 24.6699 29.0476 27 29C25.8607 27.9846 25.3884 27.6913 24 27z"/>
<path style="fill:#ebe6de; stroke:none;" d="M2 28C2.98024 29.7833 2.90759 29.5943 5 30C3.86065 28.9846 3.38843 28.6913 2 28z"/>
<path style="fill:#ab9d86; stroke:none;" d="M6 28L7 29L6 28M5 29L6 30L5 29z"/>
<path style="fill:#d7cdbe; stroke:none;" d="M26 29L27 30L26 29z"/>
<path style="fill:#bfb5a5; stroke:none;" d="M27 29C28.314 30.6179 28.8772 30.6933 31 31C29.6234 30.0886 28.5601 29.5962 27 29z"/>
<path style="fill:#988466; stroke:none;" d="M1 30C2.24835 30.6848 2.54842 30.7488 4 31C2.75165 30.3152 2.45158 30.2512 1 30z"/>
<path style="fill:#8c795b; stroke:none;" d="M26 30L27 31L26 30z"/>
<desc>Converted from Raster to SVG by RO IT Systems - info@roitsystems.com</desc></svg>
